<?xml version="1.0" standalone="no"?>
<!DOCTYPE svg PUBLIC "-//W3C//DTD SVG 20010904//EN"
 "http://www.w3.org/TR/2001/REC-SVG-20010904/DTD/svg10.dtd">
<svg version="1.0" xmlns="http://www.w3.org/2000/svg"
 width="240.000000pt" height="240.000000pt" viewBox="0 0 240.000000 240.000000"
 preserveAspectRatio="xMidYMid meet">
<metadata>
Created by potrace 1.14, written by Peter Selinger 2001-2017
</metadata>
<g transform="translate(0.000000,240.000000) scale(0.100000,-0.100000)"
fill="#000000" stroke="none">
<path d="M0 1200 l0 -1200 1200 0 1200 0 0 1200 0 1200 -1200 0 -1200 0 0
-1200z m733 515 c167 -16 319 -137 367 -292 34 -109 40 -103 -109 -103 l-129
0 -13 38 c-18 57 -45 88 -96 113 -95 46 -231 20 -289 -56 -82 -109 -96 -323
-29 -455 42 -82 109 -120 212 -121 103 -1 174 45 204 131 l11 30 130 0 131 0
-6 -36 c-3 -20 -19 -64 -35 -98 -77 -162 -235 -256 -433 -256 -168 0 -266 37
-370 140 -109 108 -153 227 -153 415 0 55 6 127 13 160 31 145 126 274 248
338 81 42 201 69 268 61 11 -2 46 -5 78 -9z m901 -202 c263 -387 291 -426 301
-422 6 3 11 117 12 309 l2 305 125 3 126 3 0 -546 0 -545 -108 0 -107 0 -214
310 c-117 171 -217 313 -222 316 -5 3 -9 -127 -9 -310 l0 -316 -130 0 -130 0
0 545 0 546 112 -3 111 -3 131 -192z"/>
</g>
</svg>
