<svg width="960" height="960" viewBox="0 0 960 960" fill="none" xmlns="http://www.w3.org/2000/svg">
<g clip-path="url(#clip0_510_1399)">
<path fill-rule="evenodd" clip-rule="evenodd" d="M424.926 850.92C424.926 876.422 471.656 897.1 529.308 897.1C586.949 897.1 633.679 876.419 633.679 850.925C633.679 827.425 596.354 808.033 545.045 805.125L544.309 805.183L547.942 850.92H514.121L510.254 805.42C461.141 809.167 424.926 828.12 424.926 850.92ZM575.764 811.361C574.713 811.021 573.586 811.597 573.246 812.648C572.905 813.699 573.482 814.826 574.533 815.166C595.659 822.005 606.876 829.262 612.084 836.03C614.654 839.371 615.749 842.577 615.892 845.594C616.035 848.631 615.218 851.625 613.727 854.525C610.715 860.379 605.093 865.573 599.986 869.389C597.456 871.28 595.103 872.795 593.348 873.848C592.471 874.375 591.748 874.783 591.233 875.062C590.974 875.202 590.773 875.307 590.635 875.377C590.549 875.42 590.506 875.44 590.494 875.446C589.513 875.833 588.995 876.925 589.332 877.938C589.681 878.986 590.813 879.552 591.861 879.203C592.063 879.136 592.304 879.015 592.424 878.954L592.432 878.95C592.616 878.858 592.855 878.733 593.139 878.579C593.708 878.27 594.482 877.833 595.407 877.278C597.255 876.169 599.724 874.579 602.38 872.594C607.646 868.659 613.853 863.023 617.283 856.355C619.013 852.994 620.071 849.304 619.887 845.406C619.702 841.489 618.269 837.511 615.254 833.591C609.29 825.839 597.107 818.269 575.764 811.361Z" fill="#171717"/>
<path fill-rule="evenodd" clip-rule="evenodd" d="M620.544 558.422C622.843 552.008 623.857 545.205 623.526 538.4L615.606 374.426L382.506 385.687L390.427 549.662C390.755 556.467 392.42 563.142 395.328 569.303C398.236 575.465 402.328 580.994 407.373 585.574C412.417 590.154 418.314 593.696 424.728 595.997C431.141 598.298 437.944 599.313 444.75 598.985L574.215 592.723C581.02 592.395 587.694 590.73 593.856 587.823C600.017 584.915 605.546 580.822 610.125 575.777C614.704 570.733 618.245 564.835 620.544 558.422ZM607.41 403.834C607.338 402.731 606.387 401.896 605.285 401.967C604.182 402.039 603.347 402.99 603.418 404.092L605.414 403.963C603.418 404.092 603.418 404.093 603.418 404.093L603.418 404.097L603.419 404.111L603.423 404.168L603.438 404.395C603.45 404.595 603.469 404.892 603.494 405.28C603.544 406.058 603.616 407.201 603.707 408.663C603.889 411.588 604.147 415.789 604.448 420.896C605.051 431.11 605.828 444.942 606.529 459.418C607.229 473.896 607.852 489.008 608.145 501.783C608.439 514.617 608.396 524.938 607.798 529.933C606.622 539.757 601.7 548.189 596.974 554.229C594.62 557.237 592.341 559.618 590.654 561.243C589.811 562.055 589.118 562.677 588.641 563.091C588.402 563.299 588.218 563.454 588.095 563.556C588.059 563.585 588.029 563.61 588.004 563.631C587.986 563.645 587.971 563.658 587.959 563.667L587.928 563.693L587.923 563.697L587.922 563.697L587.922 563.698L587.922 563.698C587.058 564.386 586.915 565.643 587.603 566.507C588.291 567.372 589.549 567.515 590.413 566.827L589.168 565.262C590.413 566.827 590.414 566.826 590.414 566.826L590.416 566.825L590.42 566.821L590.434 566.81L590.481 566.772C590.521 566.74 590.577 566.694 590.65 566.634C590.794 566.514 591.002 566.339 591.264 566.111C591.788 565.656 592.532 564.988 593.429 564.124C595.221 562.397 597.632 559.878 600.124 556.694C605.087 550.352 610.473 541.239 611.77 530.409C612.408 525.077 612.437 514.458 612.144 501.692C611.85 488.867 611.225 473.717 610.524 459.225C609.823 444.731 609.044 430.883 608.441 420.661C608.139 415.549 607.882 411.343 607.699 408.414C607.608 406.95 607.536 405.805 607.486 405.026C607.471 404.788 607.458 404.583 607.447 404.415L607.429 404.138L607.415 403.911L607.411 403.853L607.41 403.838L607.41 403.835C607.41 403.834 607.41 403.834 605.414 403.963L607.41 403.834Z" fill="#171717"/>
<path d="M679.264 374.004C679.329 375.438 678.824 376.84 677.858 377.902C676.892 378.964 675.545 379.6 674.112 379.67L661.565 380.277C660.13 380.345 658.728 379.84 657.665 378.874C656.603 377.908 655.967 376.56 655.899 375.125L655.499 366.913C655.464 366.204 655.57 365.494 655.809 364.826C656.049 364.157 656.418 363.542 656.895 363.016C657.372 362.489 657.949 362.063 658.591 361.759C659.233 361.456 659.929 361.282 660.639 361.247L673.198 360.639C673.907 360.605 674.617 360.71 675.286 360.95C675.955 361.189 676.57 361.558 677.096 362.036C677.622 362.513 678.049 363.09 678.352 363.732C678.656 364.375 678.829 365.071 678.864 365.78L679.264 374.004Z" fill="#171717"/>
<path d="M640.712 397.451C640.778 398.885 640.272 400.287 639.307 401.349C638.341 402.41 636.994 403.047 635.56 403.117L629.906 403.385C629.197 403.42 628.487 403.314 627.818 403.075C627.15 402.835 626.535 402.466 626.009 401.989C625.482 401.512 625.055 400.935 624.752 400.293C624.449 399.651 624.275 398.955 624.24 398.245L621.973 351.399C621.904 349.966 622.406 348.564 623.371 347.502C624.335 346.439 625.681 345.803 627.114 345.733L632.78 345.453C634.214 345.386 635.617 345.891 636.679 346.857C637.742 347.823 638.377 349.171 638.446 350.605L640.712 397.451Z" fill="url(#paint0_linear_510_1399)"/>
<path d="M609.963 257.564L615.605 374.424L382.505 385.685L376.862 268.826C376.275 256.697 378.083 244.57 382.183 233.14C386.283 221.709 392.594 211.198 400.757 202.206C408.919 193.215 418.773 185.919 429.755 180.736C440.737 175.553 452.632 172.584 464.762 171.998L513.139 169.662C537.635 168.48 561.597 177.077 579.755 193.562C597.913 210.046 608.779 233.068 609.963 257.564V257.564Z" fill="url(#paint1_linear_510_1399)"/>
<path d="M510.253 805.414L495.568 632.747V632.537C507.146 632.385 518.933 632.152 530.581 631.754L530.616 632.747L544.308 805.18L547.941 850.917H514.12L510.253 805.414Z" fill="#171717"/>
<path d="M374.877 410.232C374.911 410.943 374.805 411.653 374.565 412.322C374.324 412.992 373.954 413.607 373.476 414.134C372.997 414.66 372.419 415.087 371.776 415.389C371.132 415.692 370.435 415.865 369.725 415.898L364.071 416.178C363.36 416.213 362.65 416.107 361.981 415.866C361.311 415.626 360.696 415.256 360.169 414.778C359.643 414.299 359.216 413.722 358.914 413.078C358.611 412.435 358.438 411.738 358.405 411.027L356.139 364.18C356.072 362.748 356.576 361.348 357.539 360.286C358.502 359.225 359.847 358.587 361.279 358.514L366.945 358.245C367.654 358.209 368.364 358.314 369.034 358.553C369.703 358.792 370.319 359.162 370.845 359.639C371.371 360.117 371.798 360.694 372.101 361.337C372.404 361.98 372.577 362.676 372.611 363.386L374.877 410.232Z" fill="url(#paint2_linear_510_1399)"/>
<path d="M344.083 390.756C344.149 392.19 343.643 393.592 342.678 394.654C341.712 395.716 340.364 396.352 338.931 396.422L326.385 397.029C324.951 397.095 323.549 396.589 322.487 395.624C321.425 394.658 320.789 393.311 320.719 391.877L320.319 383.664C320.285 382.954 320.391 382.243 320.631 381.574C320.872 380.904 321.242 380.289 321.721 379.763C322.2 379.236 322.777 378.81 323.421 378.507C324.065 378.204 324.762 378.031 325.473 377.998L338.02 377.391C338.729 377.356 339.439 377.462 340.108 377.701C340.777 377.941 341.392 378.31 341.918 378.787C342.444 379.264 342.871 379.841 343.174 380.483C343.478 381.126 343.652 381.822 343.686 382.531L344.083 390.756Z" fill="#171717"/>
<path d="M615.606 374.424L623.527 538.398C623.858 545.203 622.844 552.007 620.545 558.42C618.246 564.834 614.705 570.731 610.126 575.776C605.547 580.821 600.018 584.914 593.857 587.821C587.695 590.729 581.021 592.394 574.216 592.721L444.751 598.983C437.945 599.312 431.142 598.296 424.729 595.996C418.315 593.695 412.418 590.153 407.374 585.573C402.33 580.993 398.237 575.464 395.329 569.302C392.421 563.14 390.756 556.466 390.428 549.66L382.507 385.685L376.864 268.826C376.277 256.697 378.085 244.57 382.185 233.14C386.285 221.709 392.596 211.198 400.758 202.207C408.921 193.215 418.774 185.92 429.756 180.736C440.738 175.553 452.633 172.584 464.763 171.998L513.14 169.662C537.635 168.48 561.597 177.077 579.755 193.561C597.913 210.045 608.779 233.067 609.964 257.562L615.606 374.424Z" stroke="#171717" stroke-width="4" stroke-linecap="round" stroke-linejoin="round"/>
<path d="M382.506 385.687L615.605 374.426" stroke="#171717" stroke-width="4" stroke-linecap="round" stroke-linejoin="round"/>
<path d="M369.725 415.9L364.071 416.18C363.36 416.215 362.65 416.109 361.981 415.868C361.311 415.628 360.696 415.258 360.169 414.779C359.643 414.301 359.216 413.724 358.914 413.08C358.611 412.436 358.438 411.74 358.405 411.029L356.139 364.182C356.072 362.75 356.576 361.35 357.539 360.288C358.502 359.227 359.847 358.589 361.279 358.516L366.945 358.247C367.654 358.211 368.364 358.316 369.034 358.555C369.703 358.794 370.319 359.163 370.845 359.641C371.371 360.119 371.798 360.696 372.101 361.339C372.404 361.982 372.577 362.678 372.611 363.388L374.877 410.234C374.911 410.945 374.805 411.655 374.565 412.324C374.324 412.994 373.954 413.609 373.476 414.136C372.997 414.662 372.419 415.089 371.776 415.391C371.132 415.694 370.435 415.867 369.725 415.9V415.9Z" stroke="#171717" stroke-width="4" stroke-linecap="round" stroke-linejoin="round"/>
<path d="M635.56 403.117L629.906 403.385C629.197 403.42 628.487 403.314 627.818 403.075C627.15 402.835 626.535 402.466 626.009 401.989C625.482 401.512 625.055 400.935 624.752 400.293C624.449 399.651 624.275 398.955 624.24 398.245L621.973 351.399C621.904 349.966 622.406 348.564 623.371 347.502C624.335 346.439 625.681 345.803 627.114 345.733L632.78 345.453C634.214 345.386 635.617 345.891 636.679 346.857C637.742 347.823 638.377 349.171 638.446 350.605L640.712 397.452C640.777 398.886 640.272 400.287 639.306 401.349C638.341 402.411 636.994 403.047 635.56 403.117V403.117Z" stroke="#171717" stroke-width="4" stroke-linecap="round" stroke-linejoin="round"/>
<path d="M347.553 347.882L367.892 598.026C367.892 598.026 365.147 632.665 416.818 632.665C437.403 632.665 465.768 632.91 495.569 632.536C507.147 632.384 518.934 632.151 530.582 631.753C564.227 630.643 596.576 628.307 618.655 623.517C632.476 620.526 661.67 607.033 661.121 586.133C660.572 565.233 645.689 334.307 645.689 334.307" stroke="#171717" stroke-width="4" stroke-linecap="round" stroke-linejoin="round"/>
<path d="M545.045 805.121C596.354 808.029 633.679 827.421 633.679 850.921C633.679 876.421 586.949 897.101 529.308 897.101C471.667 897.101 424.926 876.423 424.926 850.921C424.926 828.121 461.141 809.168 510.254 805.421C510.313 805.421 510.371 805.409 510.43 805.409" stroke="#171717" stroke-width="4" stroke-linecap="round" stroke-linejoin="round"/>
<path d="M495.568 632.746L510.253 805.413L514.12 850.916H547.941L544.308 805.179L530.616 632.746" stroke="#171717" stroke-width="4" stroke-linecap="round" stroke-linejoin="round"/>
<path d="M338.931 396.422L326.385 397.029C324.951 397.095 323.549 396.589 322.487 395.624C321.425 394.658 320.789 393.311 320.719 391.877L320.319 383.664C320.285 382.954 320.391 382.243 320.631 381.574C320.872 380.904 321.242 380.289 321.721 379.763C322.2 379.236 322.777 378.81 323.421 378.507C324.065 378.204 324.762 378.031 325.473 377.998L338.02 377.391C338.729 377.356 339.439 377.462 340.108 377.701C340.777 377.941 341.392 378.31 341.918 378.787C342.444 379.264 342.871 379.841 343.174 380.483C343.478 381.126 343.652 381.822 343.686 382.531L344.086 390.756C344.152 392.191 343.646 393.593 342.679 394.655C341.713 395.717 340.365 396.353 338.931 396.422Z" stroke="#171717" stroke-width="4" stroke-linecap="round" stroke-linejoin="round"/>
<path d="M674.112 379.67L661.565 380.277C660.13 380.345 658.728 379.84 657.665 378.874C656.603 377.908 655.967 376.56 655.899 375.125L655.499 366.913C655.464 366.204 655.57 365.494 655.809 364.826C656.049 364.157 656.418 363.542 656.895 363.016C657.372 362.489 657.949 362.063 658.591 361.759C659.233 361.456 659.929 361.282 660.639 361.247L673.198 360.639C673.907 360.605 674.617 360.71 675.286 360.95C675.955 361.189 676.57 361.558 677.096 362.036C677.622 362.513 678.049 363.09 678.352 363.732C678.656 364.375 678.829 365.071 678.864 365.78L679.264 374.004C679.329 375.438 678.824 376.84 677.858 377.902C676.892 378.964 675.545 379.6 674.112 379.67V379.67Z" stroke="#171717" stroke-width="4" stroke-linecap="round" stroke-linejoin="round"/>
<path d="M290.712 282.508C252.523 338.895 230.983 404.895 228.555 472.953C228.139 485.253 228.413 497.895 232.913 509.353C237.413 520.811 246.925 530.976 259.04 533.143C271.469 535.367 285.297 527.461 288.485 515.243C291.673 503.025 282.325 488.719 269.726 487.872C253.847 486.804 242.831 504.397 241.302 520.239C239.691 537.766 244.83 555.248 255.669 569.116C270.33 587.7 293.489 597.442 310.506 613.896C335.526 638.088 344.906 677.162 333.592 710.075C326.129 731.785 306.56 752.041 283.706 749.875C264.451 748.049 248.767 727.622 253.044 708.759C257.321 689.896 281.612 678.344 298.463 687.838C313.806 696.482 318.488 716.805 316.363 734.288C314.238 751.771 307.025 768.329 304.916 785.813C302.807 803.297 307.516 823.619 322.881 832.233C335.553 839.339 352.149 836.098 363.819 827.444C375.489 818.79 383.009 805.664 388.731 792.309C392.246 784.109 395.253 775.44 395.116 766.516C394.979 757.592 391.188 748.301 383.637 743.543C376.086 738.785 364.665 740.121 359.876 747.651C355.087 755.181 360.525 767.42 369.45 767.4L371.782 764.8" stroke="#171717" stroke-width="4" stroke-linecap="round" stroke-linejoin="round"/>
<path d="M714.265 809.616C763.576 793.097 794.88 743.304 807.879 692.951C812.079 676.68 814.804 659.595 811.579 643.103C808.354 626.611 798.291 610.717 782.833 604.129C767.375 597.541 746.741 602.824 739.147 617.814C731.553 632.804 742.577 654.699 759.381 654.789C772.248 654.858 782.811 643.347 786.16 630.922C790.894 613.357 784.46 594.522 774.674 579.186C764.888 563.85 751.862 550.849 741.361 535.993C723.067 510.112 712.776 478.381 713.916 446.708C714.446 431.976 717.66 416.76 726.754 405.158C735.848 393.556 751.873 386.552 765.83 391.294C779.787 396.036 788.197 414.635 779.937 426.845C776.266 432.272 769.048 435.808 762.974 433.345C756.9 430.882 754.767 421.171 760.256 417.593" stroke="#171717" stroke-width="4" stroke-linecap="round" stroke-linejoin="round"/>
<path d="M406.099 142.962L347.549 51.2344" stroke="#171717" stroke-width="4" stroke-linecap="round" stroke-linejoin="round"/>
<path d="M494.301 139.252L494.345 92.252" stroke="#171717" stroke-width="4" stroke-linecap="round" stroke-linejoin="round"/>
<path d="M560.781 154.131L626.038 40.1582" stroke="#171717" stroke-width="4" stroke-linecap="round" stroke-linejoin="round"/>
<path d="M359.094 197.39L345.488 191.205" stroke="#171717" stroke-width="4" stroke-linecap="round" stroke-linejoin="round"/>
<path d="M605.414 187.689L624.214 171.906" stroke="#171717" stroke-width="4" stroke-linecap="round" stroke-linejoin="round"/>
<path d="M809.274 542.546L794.451 517.799" stroke="#171717" stroke-width="4" stroke-linecap="round" stroke-linejoin="round"/>
<path d="M793.021 539.774L813.146 520.328" stroke="#171717" stroke-width="4" stroke-linecap="round" stroke-linejoin="round"/>
<path d="M217.729 366.125L207.301 357.854" stroke="#171717" stroke-width="4" stroke-linecap="round" stroke-linejoin="round"/>
<path d="M208.324 369.233C211.499 364.737 214.448 360.092 217.172 355.299" stroke="#171717" stroke-width="4" stroke-linecap="round" stroke-linejoin="round"/>
<path d="M311.222 484.799L305.188 472.699" stroke="#171717" stroke-width="4" stroke-linecap="round" stroke-linejoin="round"/>
<path d="M300.967 483.842C305.454 479.797 310.574 476.514 316.123 474.125" stroke="#171717" stroke-width="4" stroke-linecap="round" stroke-linejoin="round"/>
<path d="M291 655.155L281.635 639.773" stroke="#171717" stroke-width="4" stroke-linecap="round" stroke-linejoin="round"/>
<path d="M277.672 655.144L294.364 639.412" stroke="#171717" stroke-width="4" stroke-linecap="round" stroke-linejoin="round"/>
<path d="M714.771 729.573L698.891 733.781C698.412 733.908 697.905 733.885 697.439 733.716C696.973 733.546 696.57 733.237 696.285 732.832C696 732.426 695.846 731.943 695.844 731.447C695.842 730.951 695.991 730.466 696.273 730.058L705.603 716.536C705.875 716.142 706.025 715.675 706.032 715.196C706.04 714.717 705.905 714.246 705.645 713.843L696.735 700.043C696.466 699.627 696.332 699.138 696.349 698.642C696.367 698.147 696.536 697.668 696.833 697.272C697.131 696.875 697.543 696.579 698.014 696.424C698.485 696.269 698.992 696.262 699.467 696.403L715.21 701.098C715.669 701.235 716.159 701.233 716.617 701.092C717.075 700.951 717.481 700.677 717.784 700.305L728.158 687.567C728.471 687.182 728.894 686.903 729.371 686.766C729.848 686.629 730.355 686.642 730.824 686.802C731.293 686.963 731.702 687.263 731.995 687.663C732.289 688.063 732.452 688.543 732.464 689.039L732.864 705.463C732.876 705.942 733.03 706.406 733.306 706.798C733.582 707.189 733.967 707.491 734.414 707.663L749.734 713.593C750.197 713.772 750.593 714.089 750.87 714.5C751.148 714.911 751.292 715.397 751.284 715.893C751.277 716.389 751.117 716.871 750.828 717.273C750.538 717.676 750.132 717.98 749.664 718.144L734.164 723.599C733.712 723.759 733.317 724.048 733.03 724.431C732.742 724.815 732.574 725.275 732.548 725.753L731.648 742.153C731.621 742.648 731.442 743.123 731.137 743.514C730.831 743.904 730.413 744.192 729.939 744.338C729.465 744.484 728.958 744.481 728.486 744.33C728.014 744.179 727.599 743.886 727.298 743.492L717.321 730.441C717.029 730.061 716.631 729.775 716.178 729.621C715.724 729.466 715.234 729.45 714.771 729.573V729.573Z" fill="#171717"/>
<path d="M290.759 186.617L284.748 195.71C284.567 195.985 284.305 196.197 284 196.318C283.694 196.44 283.358 196.464 283.038 196.389C282.718 196.314 282.428 196.142 282.209 195.898C281.989 195.653 281.849 195.347 281.809 195.02L280.465 184.204C280.426 183.889 280.294 183.592 280.086 183.351C279.878 183.111 279.603 182.937 279.297 182.852L268.797 179.944C268.48 179.857 268.198 179.674 267.988 179.421C267.778 179.167 267.65 178.856 267.623 178.528C267.595 178.201 267.669 177.872 267.834 177.588C267.998 177.303 268.246 177.076 268.544 176.936L278.415 172.315C278.703 172.181 278.945 171.963 279.11 171.691C279.275 171.419 279.355 171.104 279.341 170.786L278.86 159.897C278.845 159.569 278.932 159.243 279.108 158.965C279.284 158.687 279.541 158.47 279.844 158.343C280.147 158.215 280.482 158.184 280.804 158.252C281.126 158.321 281.418 158.487 281.643 158.727L289.088 166.687C289.305 166.92 289.587 167.082 289.896 167.155C290.206 167.227 290.53 167.207 290.828 167.095L301.035 163.273C301.343 163.16 301.678 163.143 301.995 163.226C302.312 163.308 302.597 163.485 302.811 163.734C303.025 163.982 303.157 164.29 303.191 164.616C303.225 164.942 303.159 165.271 303.001 165.558L297.731 175.099C297.577 175.378 297.51 175.695 297.536 176.012C297.563 176.329 297.683 176.631 297.881 176.879L304.671 185.406C304.876 185.664 304.997 185.978 305.018 186.306C305.038 186.634 304.958 186.961 304.788 187.242C304.618 187.523 304.365 187.746 304.065 187.879C303.764 188.013 303.43 188.051 303.107 187.989L292.407 185.925C292.095 185.865 291.771 185.898 291.478 186.021C291.185 186.144 290.935 186.352 290.759 186.617V186.617Z" fill="#171717"/>
<path d="M249.211 798.587L240.947 801.367C240.698 801.451 240.429 801.456 240.176 801.382C239.923 801.309 239.699 801.159 239.534 800.954C239.369 800.749 239.271 800.498 239.252 800.236C239.234 799.973 239.297 799.711 239.432 799.486L243.901 792C244.032 791.781 244.095 791.529 244.082 791.275C244.069 791.021 243.982 790.776 243.83 790.572L238.63 783.572C238.474 783.36 238.385 783.106 238.378 782.843C238.37 782.58 238.443 782.321 238.586 782.101C238.73 781.88 238.938 781.709 239.182 781.611C239.425 781.512 239.694 781.49 239.95 781.549L248.45 783.489C248.698 783.545 248.958 783.527 249.195 783.437C249.433 783.346 249.639 783.187 249.786 782.98L254.838 775.874C254.991 775.659 255.205 775.496 255.453 775.408C255.701 775.319 255.97 775.308 256.224 775.377C256.478 775.446 256.704 775.59 256.874 775.792C257.043 775.994 257.146 776.242 257.169 776.505L257.951 785.188C257.974 785.441 258.072 785.682 258.233 785.88C258.393 786.079 258.608 786.225 258.851 786.301L267.17 788.91C267.421 788.988 267.642 789.142 267.804 789.35C267.965 789.558 268.058 789.811 268.071 790.073C268.085 790.336 268.017 790.597 267.877 790.82C267.738 791.043 267.533 791.218 267.291 791.322L259.274 794.748C259.04 794.848 258.84 795.015 258.701 795.229C258.562 795.443 258.49 795.693 258.493 795.948L258.583 804.666C258.586 804.929 258.508 805.186 258.36 805.404C258.211 805.621 258 805.788 257.754 805.882C257.509 805.975 257.24 805.992 256.985 805.928C256.729 805.865 256.5 805.724 256.326 805.527L250.589 798.961C250.422 798.769 250.202 798.631 249.957 798.565C249.712 798.498 249.452 798.506 249.211 798.587V798.587Z" fill="#171717"/>
<path d="M677.807 253.399L667.381 245.129" stroke="#171717" stroke-width="4" stroke-linecap="round" stroke-linejoin="round"/>
<path d="M668.4 256.511C671.576 252.016 674.526 247.371 677.249 242.578" stroke="#171717" stroke-width="4" stroke-linecap="round" stroke-linejoin="round"/>
<path d="M757.36 345.084L753.287 324.127" stroke="#171717" stroke-width="4" stroke-linecap="round" stroke-linejoin="round"/>
<path d="M745.561 337.242L767.061 332.742" stroke="#171717" stroke-width="4" stroke-linecap="round" stroke-linejoin="round"/>
<path d="M163.901 600.936L149.078 576.184" stroke="#171717" stroke-width="4" stroke-linecap="round" stroke-linejoin="round"/>
<path d="M147.65 598.163L167.775 578.717" stroke="#171717" stroke-width="4" stroke-linecap="round" stroke-linejoin="round"/>
<path d="M571.576 362.527L580.922 349.756" stroke="#171717" stroke-width="4" stroke-linecap="round" stroke-linejoin="round"/>
<path d="M516.334 363.875L527.33 348.41" stroke="#171717" stroke-width="4" stroke-linecap="round" stroke-linejoin="round"/>
<path d="M461.002 366.938L471.447 349.756" stroke="#171717" stroke-width="4" stroke-linecap="round" stroke-linejoin="round"/>
<path d="M406.373 370.529L415.169 354.525" stroke="#171717" stroke-width="4" stroke-linecap="round" stroke-linejoin="round"/>
<path d="M450.82 334.67L441.379 322.928" stroke="#171717" stroke-width="4" stroke-linecap="round" stroke-linejoin="round"/>
<path d="M505.331 333.613L493.096 318.057" stroke="#171717" stroke-width="4" stroke-linecap="round" stroke-linejoin="round"/>
<path d="M554.531 333.781L543.854 317.891" stroke="#171717" stroke-width="4" stroke-linecap="round" stroke-linejoin="round"/>
<path d="M596.285 333.256L587.227 318.416" stroke="#171717" stroke-width="4" stroke-linecap="round" stroke-linejoin="round"/>
<path d="M399.847 333.48L390.406 321.738" stroke="#171717" stroke-width="4" stroke-linecap="round" stroke-linejoin="round"/>
<path d="M552.424 258.715L561.77 271.485" stroke="#171717" stroke-width="4" stroke-linecap="round" stroke-linejoin="round"/>
<path d="M497.182 257.367L508.178 272.833" stroke="#171717" stroke-width="4" stroke-linecap="round" stroke-linejoin="round"/>
<path d="M441.848 254.303L452.294 271.484" stroke="#171717" stroke-width="4" stroke-linecap="round" stroke-linejoin="round"/>
<path d="M391.217 257.98L400.013 273.984" stroke="#171717" stroke-width="4" stroke-linecap="round" stroke-linejoin="round"/>
<path d="M431.668 286.57L422.227 298.312" stroke="#171717" stroke-width="4" stroke-linecap="round" stroke-linejoin="round"/>
<path d="M486.18 287.627L473.945 303.184" stroke="#171717" stroke-width="4" stroke-linecap="round" stroke-linejoin="round"/>
<path d="M535.381 287.461L524.703 303.35" stroke="#171717" stroke-width="4" stroke-linecap="round" stroke-linejoin="round"/>
<path d="M577.134 287.984L568.076 302.825" stroke="#171717" stroke-width="4" stroke-linecap="round" stroke-linejoin="round"/>
<path d="M544.52 195.678L553.866 208.448" stroke="#171717" stroke-width="4" stroke-linecap="round" stroke-linejoin="round"/>
<path d="M494.303 193.873L505.298 209.339" stroke="#171717" stroke-width="4" stroke-linecap="round" stroke-linejoin="round"/>
<path d="M441.848 195.877L452.294 213.059" stroke="#171717" stroke-width="4" stroke-linecap="round" stroke-linejoin="round"/>
<path d="M589.012 256.574L597.808 272.578" stroke="#171717" stroke-width="4" stroke-linecap="round" stroke-linejoin="round"/>
<path d="M428.789 223.078L419.348 234.82" stroke="#171717" stroke-width="4" stroke-linecap="round" stroke-linejoin="round"/>
<path d="M483.298 224.135L471.064 239.692" stroke="#171717" stroke-width="4" stroke-linecap="round" stroke-linejoin="round"/>
<path d="M532.5 223.969L521.822 239.859" stroke="#171717" stroke-width="4" stroke-linecap="round" stroke-linejoin="round"/>
<path d="M574.253 224.492L565.195 239.333" stroke="#171717" stroke-width="4" stroke-linecap="round" stroke-linejoin="round"/>
<path d="M403.714 844.898C398.557 861.148 408.987 878.526 422.147 889.364C443.372 906.843 471.355 913.634 498.605 917.299C527.885 921.238 558.196 922.084 586.465 913.499C614.734 904.914 640.865 885.761 652.388 858.557" stroke="#171717" stroke-width="4" stroke-linecap="round" stroke-linejoin="round"/>
<g opacity="0.1">
<path d="M491.041 173.899C459.089 168.162 423.999 179.95 402.505 204.432C375.805 234.846 375.111 277.976 379.627 316.015C382.581 340.895 387.237 365.609 387.244 390.745C387.244 401.905 404.632 401.925 404.588 390.745C404.431 351.07 392.44 312.245 394.599 272.484C395.543 255.096 399.121 237.547 408.179 222.468C415.867 209.493 426.774 198.722 439.846 191.199C447.564 186.759 455.165 182.913 463.946 181.012C472.605 179.137 481.491 178.541 490.322 179.242C493.346 179.476 494.07 174.442 491.045 173.902L491.041 173.899Z" fill="#171717"/>
</g>
</g>
<defs>
<linearGradient id="paint0_linear_510_1399" x1="631.342" y1="345.447" x2="630.881" y2="403.072" gradientUnits="userSpaceOnUse">
<stop stop-color="#B7B7B7"/>
<stop offset="1" stop-color="#6F6F6F"/>
</linearGradient>
<linearGradient id="paint1_linear_510_1399" x1="496.179" y1="169.555" x2="495.676" y2="384.507" gradientUnits="userSpaceOnUse">
<stop stop-color="#B7B7B7"/>
<stop offset="1" stop-color="#6F6F6F"/>
</linearGradient>
<linearGradient id="paint2_linear_510_1399" x1="365.508" y1="358.238" x2="365.047" y2="415.865" gradientUnits="userSpaceOnUse">
<stop stop-color="#B7B7B7"/>
<stop offset="1" stop-color="#6F6F6F"/>
</linearGradient>
<clipPath id="clip0_510_1399">
<rect width="671" height="885" fill="white" transform="translate(145 38)"/>
</clipPath>
</defs>
</svg>
